<?xml version="1.0" standalone="no"?>
<!DOCTYPE svg PUBLIC "-//W3C//DTD SVG 20010904//EN"
 "http://www.w3.org/TR/2001/REC-SVG-20010904/DTD/svg10.dtd">
<svg version="1.0" xmlns="http://www.w3.org/2000/svg"
 width="1200.000000pt" height="2200.000000pt" viewBox="0 0 1200.000000 2200.000000"
 preserveAspectRatio="xMidYMid meet">

<g transform="translate(0.000000,2200.000000) scale(0.100000,-0.100000)"
fill="#000000" stroke="none">
<path d="M955 21950 l-39 -40 -413 0 -413 0 0 -412 0 -412 -42 -43 -42 -43
497 0 497 0 0 495 c0 272 -1 495 -3 495 -2 0 -21 -18 -42 -40z"/>
<path d="M1955 21950 l-39 -40 -413 0 -413 0 0 -413 0 -412 -88 -88 -87 -87
-413 0 -412 0 0 -412 0 -412 -42 -43 -42 -43 499 0 499 0 -44 -45 -44 -45
-413 0 -413 0 0 -412 0 -412 -42 -43 -42 -43 499 0 499 0 -44 -45 -44 -45
-413 0 -413 0 0 -412 0 -412 -42 -43 -42 -43 499 0 499 0 -44 -45 -44 -45
-413 0 -413 0 0 -412 0 -412 -42 -43 -42 -43 499 0 499 0 -44 -45 -44 -45
-413 0 -413 0 0 -412 0 -412 -42 -43 -42 -43 499 0 499 0 -44 -45 -44 -45
-413 0 -413 0 0 -412 0 -412 -42 -43 -42 -43 499 0 499 0 -44 -45 -44 -45
-413 0 -413 0 0 -412 0 -412 -42 -43 -42 -43 499 0 499 0 -44 -45 -44 -45
-413 0 -413 0 0 -412 0 -412 -42 -43 -42 -43 499 0 499 0 -44 -45 -44 -45
-413 0 -413 0 0 -412 0 -412 -42 -43 -42 -43 499 0 499 0 -44 -45 -44 -45
-413 0 -413 0 0 -412 0 -412 -42 -43 -42 -43 499 0 499 0 -44 -45 -44 -45
-413 0 -413 0 0 -412 0 -412 -42 -43 -42 -43 499 0 499 0 -44 -45 -44 -45
-413 0 -413 0 0 -412 0 -412 -42 -43 -42 -43 499 0 499 0 -44 -45 -44 -45
-413 0 -413 0 0 -412 0 -412 -42 -43 -42 -43 499 0 499 0 -44 -45 -44 -45
-413 0 -413 0 0 -412 0 -412 -42 -43 -42 -43 499 0 499 0 -44 -45 -44 -45
-413 0 -413 0 0 -412 0 -412 -42 -43 -42 -43 499 0 499 0 -44 -45 -44 -45
-413 0 -413 0 0 -412 0 -412 -42 -43 -42 -43 499 0 499 0 -44 -45 -44 -45
-413 0 -413 0 0 -412 0 -412 -42 -43 -42 -43 499 0 499 0 -44 -45 -44 -45
-413 0 -413 0 0 -412 0 -412 -42 -43 -42 -43 499 0 499 0 -44 -45 -44 -45
-413 0 -413 0 0 -412 0 -412 -42 -43 -42 -43 499 0 499 0 -44 -45 -44 -45
-413 0 -413 0 0 -412 0 -412 -42 -43 -42 -43 1997 0 1997 0 0 500 0 500 500 0
500 0 0 -500 0 -500 3000 0 3000 0 0 10497 0 10497 -43 -42 -43 -42 -412 0
-412 0 0 -413 0 -413 -45 -44 -45 -44 0 499 0 499 -43 -42 -43 -42 -412 0
-412 0 0 -413 0 -413 -45 -44 -45 -44 0 499 0 499 -43 -42 -43 -42 -412 0
-412 0 0 -413 0 -413 -45 -44 -45 -44 0 499 0 499 -43 -42 -43 -42 -412 0
-412 0 0 -413 0 -413 -45 -44 -45 -44 0 499 0 499 -43 -42 -43 -42 -412 0
-412 0 0 -413 0 -413 -45 -44 -45 -44 0 499 0 499 -43 -42 -43 -42 -412 0
-412 0 0 -413 0 -413 -45 -44 -45 -44 0 499 0 499 -43 -42 -43 -42 -412 0
-412 0 0 -413 0 -413 -45 -44 -45 -44 0 499 0 499 -43 -42 -43 -42 -412 0
-412 0 0 -413 0 -413 -45 -44 -45 -44 0 499 0 499 -43 -42 -43 -42 -412 0
-412 0 0 -413 0 -413 -45 -44 -45 -44 -2 497 -3 498 -40 -41z m5045 -17950 l0
-1000 500 0 500 0 0 -500 0 -500 -503 0 -503 0 -42 -43 -42 -43 0 -412 0 -412
-412 0 -412 0 -43 -42 -43 -42 0 1997 0 1997 500 0 500 0 0 -1000z m-4048
-2043 l-42 -43 0 -412 0 -412 -412 0 -412 0 -43 -42 -43 -42 0 497 0 497 497
0 497 0 -42 -43z"/>
<path d="M11955 21950 l-39 -40 -413 0 -413 0 0 -412 0 -412 -42 -43 -42 -43
497 0 497 0 0 495 c0 272 -1 495 -3 495 -2 0 -21 -18 -42 -40z"/>
<path d="M11955 20950 l-39 -40 -413 0 -413 0 0 -412 0 -412 -42 -43 -42 -43
497 0 497 0 0 495 c0 272 -1 495 -3 495 -2 0 -21 -18 -42 -40z"/>
<path d="M11955 19950 l-39 -40 -413 0 -413 0 0 -412 0 -412 -42 -43 -42 -43
497 0 497 0 0 495 c0 272 -1 495 -3 495 -2 0 -21 -18 -42 -40z"/>
<path d="M11955 18950 l-39 -40 -413 0 -413 0 0 -412 0 -412 -42 -43 -42 -43
497 0 497 0 0 495 c0 272 -1 495 -3 495 -2 0 -21 -18 -42 -40z"/>
<path d="M11955 17950 l-39 -40 -413 0 -413 0 0 -412 0 -412 -42 -43 -42 -43
497 0 497 0 0 495 c0 272 -1 495 -3 495 -2 0 -21 -18 -42 -40z"/>
<path d="M11955 16950 l-39 -40 -413 0 -413 0 0 -412 0 -412 -42 -43 -42 -43
497 0 497 0 0 495 c0 272 -1 495 -3 495 -2 0 -21 -18 -42 -40z"/>
<path d="M11955 15950 l-39 -40 -413 0 -413 0 0 -412 0 -412 -42 -43 -42 -43
497 0 497 0 0 495 c0 272 -1 495 -3 495 -2 0 -21 -18 -42 -40z"/>
<path d="M11955 14950 l-39 -40 -413 0 -413 0 0 -412 0 -412 -42 -43 -42 -43
497 0 497 0 0 495 c0 272 -1 495 -3 495 -2 0 -21 -18 -42 -40z"/>
<path d="M11955 13950 l-39 -40 -413 0 -413 0 0 -412 0 -412 -42 -43 -42 -43
497 0 497 0 0 495 c0 272 -1 495 -3 495 -2 0 -21 -18 -42 -40z"/>
<path d="M11955 12950 l-39 -40 -413 0 -413 0 0 -412 0 -412 -42 -43 -42 -43
497 0 497 0 0 495 c0 272 -1 495 -3 495 -2 0 -21 -18 -42 -40z"/>
<path d="M11955 11950 l-39 -40 -413 0 -413 0 0 -412 0 -412 -42 -43 -42 -43
497 0 497 0 0 495 c0 272 -1 495 -3 495 -2 0 -21 -18 -42 -40z"/>
<path d="M11955 10950 l-39 -40 -413 0 -413 0 0 -412 0 -412 -42 -43 -42 -43
497 0 497 0 0 495 c0 272 -1 495 -3 495 -2 0 -21 -18 -42 -40z"/>
<path d="M11955 9950 l-39 -40 -413 0 -413 0 0 -412 0 -412 -42 -43 -42 -43
497 0 497 0 0 495 c0 272 -1 495 -3 495 -2 0 -21 -18 -42 -40z"/>
<path d="M11955 8950 l-39 -40 -413 0 -413 0 0 -412 0 -412 -42 -43 -42 -43
497 0 497 0 0 495 c0 272 -1 495 -3 495 -2 0 -21 -18 -42 -40z"/>
<path d="M11955 7950 l-39 -40 -413 0 -413 0 0 -412 0 -412 -42 -43 -42 -43
497 0 497 0 0 495 c0 272 -1 495 -3 495 -2 0 -21 -18 -42 -40z"/>
<path d="M11955 6950 l-39 -40 -413 0 -413 0 0 -412 0 -412 -42 -43 -42 -43
497 0 497 0 0 495 c0 272 -1 495 -3 495 -2 0 -21 -18 -42 -40z"/>
<path d="M11955 5950 l-39 -40 -413 0 -413 0 0 -412 0 -412 -42 -43 -42 -43
497 0 497 0 0 495 c0 272 -1 495 -3 495 -2 0 -21 -18 -42 -40z"/>
<path d="M11955 4950 l-39 -40 -413 0 -413 0 0 -412 0 -412 -42 -43 -42 -43
497 0 497 0 0 495 c0 272 -1 495 -3 495 -2 0 -21 -18 -42 -40z"/>
<path d="M11955 3950 l-39 -40 -413 0 -413 0 0 -412 0 -412 -42 -43 -42 -43
497 0 497 0 0 495 c0 272 -1 495 -3 495 -2 0 -21 -18 -42 -40z"/>
<path d="M11955 2950 l-39 -40 -413 0 -413 0 0 -412 0 -412 -42 -43 -42 -43
497 0 497 0 0 495 c0 272 -1 495 -3 495 -2 0 -21 -18 -42 -40z"/>
<path d="M11955 1950 l-39 -40 -413 0 -413 0 0 -412 0 -412 -42 -43 -42 -43
497 0 497 0 0 495 c0 272 -1 495 -3 495 -2 0 -21 -18 -42 -40z"/>
<path d="M955 950 l-39 -40 -413 0 -413 0 0 -412 0 -412 -42 -43 -42 -43 497
0 497 0 0 495 c0 272 -1 495 -3 495 -2 0 -21 -18 -42 -40z"/>
<path d="M1955 950 l-39 -40 -413 0 -413 0 0 -412 0 -412 -42 -43 -42 -43 497
0 497 0 0 495 c0 272 -1 495 -3 495 -2 0 -21 -18 -42 -40z"/>
<path d="M2955 950 l-39 -40 -413 0 -413 0 0 -412 0 -412 -42 -43 -42 -43 497
0 497 0 0 495 c0 272 -1 495 -3 495 -2 0 -21 -18 -42 -40z"/>
<path d="M3955 950 l-39 -40 -413 0 -413 0 0 -412 0 -412 -42 -43 -42 -43 497
0 497 0 0 495 c0 272 -1 495 -3 495 -2 0 -21 -18 -42 -40z"/>
<path d="M4955 950 l-39 -40 -413 0 -413 0 0 -412 0 -412 -42 -43 -42 -43 497
0 497 0 0 495 c0 272 -1 495 -3 495 -2 0 -21 -18 -42 -40z"/>
<path d="M5955 950 l-39 -40 -413 0 -413 0 0 -412 0 -412 -42 -43 -42 -43 497
0 497 0 0 495 c0 272 -1 495 -3 495 -2 0 -21 -18 -42 -40z"/>
<path d="M6955 950 l-39 -40 -413 0 -413 0 0 -412 0 -412 -42 -43 -42 -43 497
0 497 0 0 495 c0 272 -1 495 -3 495 -2 0 -21 -18 -42 -40z"/>
<path d="M7955 950 l-39 -40 -413 0 -413 0 0 -412 0 -412 -42 -43 -42 -43 497
0 497 0 0 495 c0 272 -1 495 -3 495 -2 0 -21 -18 -42 -40z"/>
<path d="M8955 950 l-39 -40 -413 0 -413 0 0 -412 0 -412 -42 -43 -42 -43 497
0 497 0 0 495 c0 272 -1 495 -3 495 -2 0 -21 -18 -42 -40z"/>
<path d="M9955 950 l-39 -40 -413 0 -413 0 0 -412 0 -412 -42 -43 -42 -43 497
0 497 0 0 495 c0 272 -1 495 -3 495 -2 0 -21 -18 -42 -40z"/>
<path d="M10955 950 l-39 -40 -413 0 -413 0 0 -412 0 -412 -42 -43 -42 -43
497 0 497 0 0 495 c0 272 -1 495 -3 495 -2 0 -21 -18 -42 -40z"/>
<path d="M11955 950 l-39 -40 -413 0 -413 0 0 -412 0 -412 -42 -43 -42 -43
497 0 497 0 0 495 c0 272 -1 495 -3 495 -2 0 -21 -18 -42 -40z"/>
</g>
</svg>
